<?xml version="1.0" encoding="utf-8"?>
<?xml-stylesheet type="text/xsl" href="rss1.xsl"?>
<rss version="2.0" xmlns:atom="http://www.w3.org/2005/Atom" xmlns:content="http://purl.org/rss/1.0/modules/content/" xmlns:dc="http://purl.org/dc/elements/1.1/" xmlns:media="http://search.yahoo.com/mrss/">
<channel>
 <title>Getty</title>
 <link>http://www.gettyimg.com/</link>
 <atom:link href="http://www.gettyimg.com/" rel="self" type="application/rss+xml" />

 
                <item>
                <title><![CDATA[【Apple Music】WEB-RiP - Green Day - Dilemma (2160p AM WEB-DL AAC2.0 H.265)]]></title>
                <link><![CDATA[https://sharemania.us/threads/green-day-dilemma-2160p-am-web-dl-aac2-0-h-265.238469/]]></link>
                <description><![CDATA[<article>
<blockquote class="messageText SelectQuoteContainer ugc baseHtml">
<div style="text-align: center"><img src="https://i.gyazo.com/73bbb7b315efe5aa91644fe427d5c579.png" class="bbCodeImage LbImage" alt="[​IMG]" data-url="https://i.gyazo.com/73bbb7b315efe5aa91644fe427d5c579.png" style="">
<div class="bbCodeBlock bbCodeCode">
<div class="type">Code:</div>
<pre>General

Unique ID                      : 129678140480824263321026608688092834943 (0x618F19F497E1C9F6030D94BACC7A6C7F)
Format                         : Matroska
Format version                 : Version 4
File size                      : 497 MiB
Duration                       : 3 min 19 s
Overall bit rate               : 20.9 Mb/s
Frame rate                     : 23.976 FPS
Encoded date                   : 2023-12-09 23:28:03 UTC
Writing application            : mkvmerge v67.0.0 ('Under Stars') 64-bit
Writing library                : libebml v1.4.2 + libmatroska v1.6.4
Cover                          : Yes
Attachments                    : cover.jpg

Video
ID                             : 1
Format                         : HEVC
Format/Info                    : High Efficiency Video Coding
Format profile                 : Main 10@L5@High
Codec ID                       : V_MPEGH/ISO/HEVC
Duration                       : 3 min 19 s
Bit rate                       : 20.7 Mb/s
Width                          : 3 840 pixels
Height                         : 2 160 pixels
Display aspect ratio           : 16:9
Frame rate mode                : Constant
Frame rate                     : 23.976 (23976/1000) FPS
Color space                    : YUV
Chroma subsampling             : 4:2:0
Bit depth                      : 10 bits
Bits/(Pixel*Frame)             : 0.104
Stream size                    : 490 MiB (99%)
Default                        : Yes
Forced                         : No
Color range                    : Limited
Color primaries                : BT.709
Transfer characteristics       : BT.709
Matrix coefficients            : BT.709

Audio
ID                             : 2
Format                         : AAC LC
Format/Info                    : Advanced Audio Codec Low Complexity
Codec ID                       : A_AAC-2
Duration                       : 3 min 19 s
Bit rate                       : 281 kb/s
Channel(s)                     : 2 channels
Channel layout                 : L R
Sampling rate                  : 48.0 kHz
Frame rate                     : 46.875 FPS (1024 SPF)
Compression mode               : Lossy
Stream size                    : 6.66 MiB (1%)
Default                        : Yes
Forced                         : No</pre>
</div>
<div class="bbCodeBlock bbCodeVfcHH HiddenContent">
<div class="attribution type">Hidden Content:</div>
<blockquote>You must either reply or click 'Like' to see the hidden information contained here.</blockquote>
</div></div>
<div class="messageTextEndMarker">&nbsp;</div>
</blockquote>
</article>]]></description>
                <author><![CDATA[Rey619Spear]]></author>
                </item>

                
                <item>
                <title><![CDATA[【Apple Music】WEB-RiP - Green Day - Bobby Sox (1620p AM WEB-DL AAC2.0 H.265)]]></title>
                <link><![CDATA[https://sharemania.us/threads/green-day-bobby-sox-1620p-am-web-dl-aac2-0-h-265.238468/]]></link>
                <description><![CDATA[<article>
<blockquote class="messageText SelectQuoteContainer ugc baseHtml">
<div style="text-align: center"><img src="https://i.gyazo.com/aec39b16bfa16945d7c611459579eaca.png" class="bbCodeImage LbImage" alt="[​IMG]" data-url="https://i.gyazo.com/aec39b16bfa16945d7c611459579eaca.png" style=""> <br>
<div class="bbCodeBlock bbCodeCode">
<div class="type">Code:</div>
<pre>General
Unique ID                      : 212758659705921789895954659773122936882 (0xA00FD3CE3A418D9666C71870AD150032)
Format                         : Matroska
Format version                 : Version 4
File size                      : 331 MiB
Duration                       : 3 min 47 s
Overall bit rate               : 12.2 Mb/s
Frame rate                     : 23.976 FPS
Encoded date                   : 2024-01-24 12:43:50 UTC
Writing application            : mkvmerge v67.0.0 ('Under Stars') 64-bit
Writing library                : libebml v1.4.2 + libmatroska v1.6.4
Cover                          : Yes
Attachments                    : cover.jpg

Video
ID                             : 1
Format                         : HEVC
Format/Info                    : High Efficiency Video Coding
Format profile                 : Main 10@L5@High
Codec ID                       : V_MPEGH/ISO/HEVC
Duration                       : 3 min 47 s
Bit rate                       : 11.9 Mb/s
Width                          : 2 160 pixels
Height                         : 1 620 pixels
Display aspect ratio           : 4:3
Frame rate mode                : Constant
Frame rate                     : 23.976 (23976/1000) FPS
Color space                    : YUV
Chroma subsampling             : 4:2:0
Bit depth                      : 10 bits
Bits/(Pixel*Frame)             : 0.142
Stream size                    : 323 MiB (98%)
Default                        : Yes
Forced                         : No
Color range                    : Limited
Color primaries                : BT.709
Transfer characteristics       : BT.709
Matrix coefficients            : BT.709

Audio
ID                             : 2
Format                         : AAC LC
Format/Info                    : Advanced Audio Codec Low Complexity
Codec ID                       : A_AAC-2
Duration                       : 3 min 47 s
Bit rate                       : 288 kb/s
Channel(s)                     : 2 channels
Channel layout                 : L R
Sampling rate                  : 48.0 kHz
Frame rate                     : 46.875 FPS (1024 SPF)
Compression mode               : Lossy
Stream size                    : 7.73 MiB (2%)
Default                        : Yes
Forced                         : No</pre>
</div>
<div class="bbCodeBlock bbCodeVfcHH HiddenContent">
<div class="attribution type">Hidden Content:</div>
<blockquote>You must either reply or click 'Like' to see the hidden information contained here.</blockquote>
</div></div>
<div class="messageTextEndMarker">&nbsp;</div>
</blockquote>
</article>]]></description>
                <author><![CDATA[Rey619Spear]]></author>
                </item>

                </channel></rss>